<svg width="787" height="370" viewBox="0 0 787 370" fill="none" xmlns="http://www.w3.org/2000/svg">
<path d="M3.22648e-05 0.066368C2.80277e-05 48.5329 10.1716 96.5248 29.9339 141.302C49.6963 186.079 78.6625 226.765 115.179 261.036C151.695 295.307 195.046 322.492 242.756 341.039C290.467 359.587 341.603 369.133 393.244 369.133C444.886 369.133 496.022 359.587 543.732 341.039C591.443 322.492 634.794 295.307 671.31 261.036C707.826 226.765 736.792 186.079 756.554 141.302C776.317 96.5248 786.488 48.5329 786.488 0.0664045L393.244 0.0664024L3.22648e-05 0.066368Z" fill="url(#paint0_linear_1_79)"/>
<defs>
<linearGradient id="paint0_linear_1_79" x1="393.244" y1="0.0664127" x2="393.244" y2="369.133" gradientUnits="userSpaceOnUse">
<stop stop-color="#0B2545" stop-opacity="0"/>
<stop offset="0.680387" stop-color="#0B2545"/>
<stop offset="1" stop-color="#0B2545"/>
</linearGradient>
</defs>
</svg>
