<svg width="110" height="94" viewBox="0 0 110 94" fill="none" xmlns="http://www.w3.org/2000/svg">
<path d="M0.328125 77.0104L2.54225 88.8183L4.08475 90.5624L3.48095 83.518L19.6494 93.1117H25.2178L53.8648 72.1129L74.1928 47.6256L91.3005 19.9176L98.7474 11.1289L103.98 3.2124L109.012 2.60847C106.351 1.66928 101.028 -0.0749222 101.028 0.46179C101.028 1.13268 98.8816 5.22517 98.7474 7.57329C98.6133 9.92141 91.636 17.1 90.6967 17.1671C89.9453 17.2208 84.3456 26.0899 81.6397 30.5178C79.0232 35.0351 73.3878 44.781 71.7776 47.6256C70.1675 50.4702 59.1649 62.7654 53.8648 68.5574L34.6103 84.122L34.5745 84.1571C32.2252 86.4614 26.4259 92.1495 21.9975 91.3676C17.4362 90.5624 5.69514 81.7289 0.328125 77.0104Z" fill="#0B2646"/>
</svg>
