<svg width="788" height="355" viewBox="0 0 788 355" fill="none" xmlns="http://www.w3.org/2000/svg">
<path d="M0.859406 0.810539C0.859402 47.2736 11.031 93.2817 30.7933 136.208C50.5557 179.134 79.5218 218.138 116.038 250.992C152.554 283.847 195.905 309.908 243.616 327.689C291.326 345.47 342.462 354.621 394.104 354.621C445.745 354.621 496.881 345.47 544.592 327.689C592.302 309.908 635.653 283.847 672.169 250.992C708.685 218.138 737.651 179.134 757.414 136.208C777.176 93.2817 787.348 47.2736 787.348 0.810577L394.104 0.810574L0.859406 0.810539Z" fill="url(#paint0_linear_1_69)"/>
<defs>
<linearGradient id="paint0_linear_1_69" x1="394.104" y1="0.810583" x2="394.104" y2="354.621" gradientUnits="userSpaceOnUse">
<stop stop-color="#0B2545" stop-opacity="0"/>
<stop offset="0.680387" stop-color="#0B2545"/>
<stop offset="1" stop-color="#0B2545"/>
</linearGradient>
</defs>
</svg>
