<svg width="787" height="370" viewBox="0 0 787 370" fill="none" xmlns="http://www.w3.org/2000/svg">
<path d="M0.027376 0.814415C0.0273718 49.2809 10.199 97.2728 29.9613 142.05C49.7237 186.827 78.6898 227.513 115.206 261.784C151.722 296.055 195.073 323.24 242.784 341.787C290.494 360.335 341.63 369.881 393.272 369.881C444.913 369.881 496.049 360.335 543.76 341.787C591.47 323.24 634.821 296.055 671.337 261.784C707.853 227.513 634.754 150.716 654.517 105.939C674.279 61.1615 786.516 49.2809 786.516 0.814453L393.272 0.814449L0.027376 0.814415Z" fill="url(#paint0_linear_1_74)"/>
<defs>
<linearGradient id="paint0_linear_1_74" x1="393.272" y1="0.814451" x2="393.272" y2="369.881" gradientUnits="userSpaceOnUse">
<stop stop-color="#0B2545" stop-opacity="0"/>
<stop offset="0.680387" stop-color="#0B2545"/>
<stop offset="1" stop-color="#0B2545"/>
</linearGradient>
</defs>
</svg>
