<svg width="82" height="67" viewBox="0 0 82 67" fill="none" xmlns="http://www.w3.org/2000/svg">
<path d="M78.655 55.6569L80.0456 58.4088L81.8186 59.6433V47.209L77.4998 33.7306L65.8249 13.7502L56.7602 5.82452L44.5631 2.17016L28.949 0.888672L21.9725 3.11929L14.1417 9.33646L8.77885 15.8384L2.37185 25.615L0.948074 30.1236L1.70742 38.9985L0.234375 53.0464L5.17014 66.2401L6.07186 63.6298C5.51771 62.301 4.09617 58.9219 2.84325 56.0364C1.59032 53.1508 2.67162 44.9309 3.36888 41.1816C3.71692 40.5963 4.20416 38.7802 3.36888 36.1984C2.32478 32.9712 4.3637 26.232 5.31289 24.8082C6.07223 23.6692 10.2479 17.8475 12.2407 15.079C15.8477 8.33981 22.9435 5.99544 24.5091 4.93489C26.0747 3.87433 31.122 3.52078 40.465 4.07631C49.808 4.63184 55.6191 8.21741 57.8917 9.68199C59.7098 10.8537 63.4639 14.6818 65.1137 16.4495L71.1217 26.4996C72.8893 29.1594 76.7073 35.3476 77.8386 38.8222C78.9698 42.2968 78.8542 51.4931 78.655 55.6569Z" fill="#0B2545"/>
</svg>
