<svg width="107" height="128" viewBox="0 0 107 128" fill="none" xmlns="http://www.w3.org/2000/svg">
<path d="M93.894 40.2029C99.5651 50.383 102.681 64.2596 103.531 69.9253L106.166 70.4706L104.803 58.1091L94.4407 36.2945L76.8981 10.0261L61.9915 0.754883L42.8129 2.02752L23.9978 9.11725L12.9997 22.5696L2.81955 53.8371L0.09375 84.1957L5.36301 106.177L19.2724 117.645L12.8189 127.552L26.453 115.645C23.8378 115.069 22.6006 112.519 20.164 109.998C12.608 102.18 5.20765 88.8579 4.72589 88.3768C4.08877 87.7405 3.90772 80.3872 3.90772 76.8333C3.90772 73.8202 5.0597 66.3805 5.36301 63.0174C5.3933 59.9573 5.43572 53.5462 5.36301 52.3828C5.27211 50.9285 7.90786 44.7477 9.99842 38.476C12.089 32.2043 17.8163 21.4788 19.3615 18.0249C20.5977 15.2617 28.846 10.208 32.8157 8.02652C35.7546 6.99639 42.0991 5.13609 43.966 5.93596C45.8328 6.73583 54.2152 4.57255 58.173 3.39092C65.2991 4.91794 72.7163 12.45 75.5342 16.0252C79.2911 19.8427 88.2228 30.0229 93.894 40.2029Z" fill="#0B2545"/>
</svg>
